<?xml version="1.0" encoding="UTF-8" standalone="no"?>
<!-- Created with Inkscape (http://www.inkscape.org/) -->

<svg
   xmlns:dc="http://purl.org/dc/elements/1.1/"
   xmlns:cc="http://creativecommons.org/ns#"
   xmlns:rdf="http://www.w3.org/1999/02/22-rdf-syntax-ns#"
   xmlns:svg="http://www.w3.org/2000/svg"
   xmlns="http://www.w3.org/2000/svg"
   xmlns:sodipodi="http://sodipodi.sourceforge.net/DTD/sodipodi-0.dtd"
   xmlns:inkscape="http://www.inkscape.org/namespaces/inkscape"
   width="226.08525"
   height="339.01627"
   id="svg2"
   version="1.1"
   inkscape:version="0.48.2 r9819"
   sodipodi:docname="pinkiepieCM.svg">
  <sodipodi:namedview
     id="base"
     pagecolor="#ffffff"
     bordercolor="#666666"
     borderopacity="1.0"
     inkscape:pageopacity="0.0"
     inkscape:pageshadow="2"
     inkscape:zoom="1.4"
     inkscape:cx="125.05556"
     inkscape:cy="137.41903"
     inkscape:document-units="px"
     inkscape:current-layer="layer2"
     showgrid="false"
     fit-margin-top="0"
     fit-margin-left="0"
     fit-margin-right="0"
     fit-margin-bottom="0"
     inkscape:window-width="1088"
     inkscape:window-height="843"
     inkscape:window-x="664"
     inkscape:window-y="80"
     inkscape:window-maximized="0" />
  <defs
     id="defs4" />
  <metadata
     id="metadata7">
    <rdf:RDF>
      <cc:Work
         rdf:about="">
        <dc:format>image/svg+xml</dc:format>
        <dc:type
           rdf:resource="http://purl.org/dc/dcmitype/StillImage" />
        <dc:title></dc:title>
      </cc:Work>
    </rdf:RDF>
  </metadata>
  <g
     inkscape:label="Cutie Mark"
     id="layer2"
     inkscape:groupmode="layer"
     sodipodi:insensitive="true"
     transform="translate(-850.19471,-295.10173)">
    <g
       id="g3852"
       transform="matrix(0.81060799,0.58558917,-0.58558917,0.81060799,456.30574,-477.25758)">
      <path
         style="fill:#fff7ad;fill-opacity:1;stroke:none"
         d="m 930.67588,372.51529 c 0,19.13097 -21.15446,34.63969 -47.24979,34.63969 -26.09534,0 -47.24979,-15.50872 -47.24979,-34.63969 0,-19.13098 21.15445,-34.63969 47.24979,-34.63969 26.09533,0 47.24979,15.50871 47.24979,34.63969 z"
         id="path2993"
         inkscape:connector-curvature="0"
         sodipodi:cx="883.42609"
         sodipodi:cy="372.51529"
         sodipodi:rx="47.24979"
         sodipodi:ry="34.639694"
         sodipodi:type="arc"
         transform="matrix(0.43714377,0.89939164,-0.89939164,0.43714377,832.27899,-584.87347)" />
      <path
         sodipodi:nodetypes="csssc"
         inkscape:connector-curvature="0"
         id="path3059"
         d="m 916.20836,421.63308 c 7.33478,40.42781 9.50228,46.53664 41.66879,54.80077 16.14187,4.14712 32.61498,19.65538 28.53681,34.59773 -2.5378,9.29847 -12.52805,19.43075 -20.70813,11.11168 -11.17398,-11.36384 2.29811,-22.70318 6.31346,-18.68783"
         style="fill:none;stroke:#7bd4f9;stroke-width:3;stroke-linecap:round;stroke-linejoin:miter;stroke-miterlimit:4;stroke-opacity:1;stroke-dasharray:none" />
      <path
         inkscape:connector-curvature="0"
         id="path3009"
         d="m 907.14286,404.82143 0.71428,26.60714 29.10715,-15.35714 L 909.10714,393.75 z"
         style="fill:#fff7ad;fill-opacity:1;stroke:none" />
      <path
         sodipodi:nodetypes="csssc"
         inkscape:connector-curvature="0"
         id="path3829"
         d="m 932.11826,543.609 c 10.54881,-0.33113 36.9726,-1.57567 41.16372,28.28427 3.401,24.23065 30.10992,42.71247 46.21452,27.02158 11.1507,-10.8642 10.6671,-32.83477 -6.061,-39.14341 -8.27,-3.11886 -14.33777,-1.01016 -19.69793,2.0203"
         style="fill:none;stroke:#fff7ad;stroke-width:3;stroke-linecap:round;stroke-linejoin:miter;stroke-miterlimit:4;stroke-opacity:1;stroke-dasharray:none" />
      <path
         transform="matrix(0.61053378,0.79199021,-0.79199021,0.61053378,744.59257,-510.79721)"
         sodipodi:type="arc"
         sodipodi:ry="35.102943"
         sodipodi:rx="48.280914"
         sodipodi:cy="501.67609"
         sodipodi:cx="891.65631"
         inkscape:connector-curvature="0"
         id="path3011"
         d="m 939.93723,501.67609 c 0,19.38682 -21.61611,35.10294 -48.28092,35.10294 -26.66481,0 -48.28091,-15.71612 -48.28091,-35.10294 0,-19.38682 21.6161,-35.10295 48.28091,-35.10295 26.66481,0 48.28092,15.71613 48.28092,35.10295 z"
         style="fill:#7bd4f9;fill-opacity:1;stroke:none" />
      <path
         style="fill:#7bd4f9;fill-opacity:1;stroke:none"
         d="m 917.09224,521.25937 11.99557,43.31029 20.32932,-33.58757 z"
         id="path3031"
         inkscape:connector-curvature="0" />
      <path
         style="fill:#7bd4f9;fill-opacity:1;stroke:none"
         d="m 1059.886,405.73975 c 0,18.85386 -22.8676,34.13794 -51.0762,34.13794 -28.20856,0 -51.07613,-15.28408 -51.07613,-34.13794 0,-18.85387 22.86757,-34.13795 51.07613,-34.13795 28.2086,0 51.0762,15.28408 51.0762,34.13795 z"
         id="path3033"
         inkscape:connector-curvature="0"
         sodipodi:cx="1008.8098"
         sodipodi:cy="405.73975"
         sodipodi:rx="51.076149"
         sodipodi:ry="34.137943"
         sodipodi:type="arc"
         transform="matrix(0.05554288,0.9984563,-0.9984563,0.05554288,1357.8911,-624.04874)" />
      <path
         sodipodi:nodetypes="csssc"
         inkscape:connector-curvature="0"
         id="path3831"
         d="m 1018.9286,472.85714 c -2.764,12.4069 3.9158,50.61451 29.1071,60.71429 20.1267,8.06926 35.2605,27.69472 36.25,39.64285 1.4762,17.82559 -9.7556,21.06269 -23.5714,19.64286 -10.4239,-1.07125 -15.718,-14.3987 -17.1429,-20"
         style="fill:none;stroke:#fff7ad;stroke-width:3;stroke-linecap:round;stroke-linejoin:miter;stroke-miterlimit:4;stroke-opacity:1;stroke-dasharray:none" />
      <path
         inkscape:connector-curvature="0"
         id="path3057"
         d="m 1020.3571,440.71428 20.7143,28.39286 -34.8214,13.75 10.7143,-41.78571 z"
         style="fill:#7bd4f9;fill-opacity:1;stroke:none" />
    </g>
  </g>
</svg>
