<?xml version="1.0" encoding="utf-8"?>
<!-- Generator: Adobe Illustrator 16.0.0, SVG Export Plug-In . SVG Version: 6.00 Build 0)  -->
<!DOCTYPE svg PUBLIC "-//W3C//DTD SVG 1.0//EN" "http://www.w3.org/TR/2001/REC-SVG-20010904/DTD/svg10.dtd">
<svg version="1.0" id="Vector" xmlns="http://www.w3.org/2000/svg" xmlns:xlink="http://www.w3.org/1999/xlink" x="0px" y="0px"
	 width="1920px" height="1080px" viewBox="0 0 1920 1080" style="enable-background:new 0 0 1920 1080;" xml:space="preserve">
<g id="Background">
	<polygon style="fill:#C7EAE4;" points="371.12,-17.382 384.619,41.115 468.615,101.112 522.612,153.61 618.607,171.609 
		618.607,264.604 665.105,440.095 761.101,498.592 920.092,519.591 1127.082,599.087 1460.065,591.588 1946.041,671.084 
		1946.041,-17.382 	"/>
	<path style="fill:#CCCDDB;" d="M-86,482l809,7l87.667,4.333c0,0,118-16,198.667,38c74.986,50.198,225.302,64.792,346.663,47.333
		C1451,565,1514.5,570.5,1635,601c100.448,25.425,263,48.5,317,37v160.578H-106L-86,482z"/>
	<path style="fill:#C0C6D5;" d="M-40,631.334c0,0,70-7.333,111.333-8S662.667,606,662.667,606s295.999-1.333,407.333,74l110.5,27.5
		c0,0,76,78,162.5,78.5s396.334,10,396.334,10s144.667-36,214.667-78l6,90.667l-157.952,6.409l-118.494,16.5l-494.976-10.5
		l-524.974,10.5l-746.96-15V654.585L-40,631.334z"/>
	<g id="Cloud">
		<g>
			<path style="fill:#E2F5F3;" d="M848.333,165c0,0,0.74-0.363,2.07-1.18c0.661-0.413,1.462-0.96,2.312-1.702
				c0.828-0.753,1.791-1.647,2.46-2.863c0.688-1.199,0.98-2.689,0.534-4.214c-0.382-1.545-1.494-3.109-2.952-4.568
				c-0.753-0.718-1.56-1.444-2.478-2.122c-0.886-0.706-1.753-1.276-2.828-1.771c-2.105-0.981-4.612-1.599-7.294-1.842
				c-2.68-0.263-5.569-0.201-8.487,0.4c-2.902,0.602-5.876,1.718-8.368,3.686c-2.503,1.945-4.293,4.881-4.874,8.271
				c-0.612,3.401-0.113,7.158,1.687,10.324c1.786,3.199,4.82,5.768,8.345,7.676c3.54,1.915,7.556,3.268,11.775,4.212
				c8.45,1.907,17.754,2.085,27.132,0.905c2.326-0.337,4.642-0.856,6.831-1.716c2.19-0.844,4.256-2.06,5.905-3.748
				c0.832-0.833,1.57-1.764,2.202-2.776c0.163-0.25,0.314-0.508,0.454-0.774l0.193-0.344l0.191-0.441l0.191-0.442l0.119-0.385
				c0.086-0.249,0.165-0.512,0.22-0.804c0.526-2.264,0.306-4.746-0.346-7.123c-1.301-4.804-4.314-9.183-7.938-12.919
				c-3.649-3.753-8.009-6.927-12.762-9.516c-2.378-1.297-4.855-2.452-7.405-3.48l-1.921-0.748l-1.99-0.728
				c-1.328-0.467-2.66-0.935-3.996-1.405c-5.337-1.88-10.81-3.535-16.394-4.784c-5.559-1.319-11.283-2.178-16.965-2.072
				c-2.838,0.022-5.661,0.349-8.371,1.053c-2.713,0.684-5.311,1.804-7.593,3.438c-2.278,1.63-4.262,3.752-5.743,6.255
				c-1.482,2.496-2.626,5.266-3.337,8.185c-0.375,1.451-0.672,2.942-0.889,4.434c-0.249,1.546-0.416,3.056-0.572,4.566
				c-0.132,1.527-0.18,3.064-0.188,4.602c-0.008,1.537,0.026,3.079,0.181,4.613c0.058,0.769,0.128,1.536,0.233,2.3
				c0.096,0.765,0.176,1.532,0.313,2.292c0.25,1.523,0.587,3.032,0.948,4.533c0.736,2.999,1.698,5.942,2.863,8.803
				c2.395,5.703,5.619,11.029,9.391,15.918c7.599,9.78,17.247,17.8,27.646,24.809c2.623,1.725,5.273,3.434,8.026,4.987
				c2.75,1.556,5.559,3.023,8.429,4.378c5.741,2.706,11.685,5.026,17.739,7.026c12.108,4.021,24.666,6.742,37.308,8.456
				c12.664,1.706,25.371,2.366,38.071,2.21c12.65-0.129,25.247-0.875,37.607-2.191c12.366-1.325,24.524-3.207,36.4-5.515
				c23.766-4.605,46.358-10.952,67.648-17.49c21.296-6.536,41.35-13.205,60.236-18.399c9.438-2.606,18.586-4.838,27.406-6.496
				c8.824-1.625,17.316-2.704,25.352-3.013c4.023-0.163,7.896-0.203,11.688-0.004c0.915,0.042,1.84,0.102,2.795,0.204
				c0.938,0.094,1.882,0.159,2.78,0.294c1.816,0.216,3.581,0.513,5.307,0.815c6.882,1.326,13.028,3.213,18.364,5.388
				c10.673,4.383,18.326,9.219,23.293,12.777c4.979,3.559,7.378,5.764,7.378,5.764s-2.665-1.883-7.927-4.907
				c-2.633-1.508-5.967-3.205-9.913-5.096c-3.958-1.865-8.6-3.816-13.932-5.53c-5.314-1.744-11.299-3.365-17.925-4.293
				c-1.658-0.21-3.349-0.413-5.078-0.537c-0.869-0.09-1.722-0.104-2.591-0.151c-0.435-0.02-0.872-0.039-1.311-0.059
				c-0.458-0.004-0.918-0.008-1.381-0.011c-3.595-0.028-7.389,0.019-11.269,0.275c-15.538,1.033-33.07,3.964-51.805,9.048
				c-18.751,5.013-38.78,11.673-60.165,18.153c-21.373,6.499-44.146,12.832-68.137,17.413c-11.991,2.292-24.272,4.158-36.765,5.522
				c-12.497,1.338-25.2,2.102-38.03,2.241c-25.608,0.331-51.902-2.641-76.737-10.826c-6.207-2.026-12.28-4.456-18.222-7.158
				c-5.925-2.73-11.87-5.48-17.569-8.754c-5.739-3.204-11.137-7.054-16.067-11.442c-4.86-4.462-9.33-9.376-13.13-14.786
				c-7.614-10.789-12.264-23.729-12.84-36.728c-0.167-3.246,0.007-6.484,0.318-9.679l0.296-2.421
				c0.104-0.798,0.243-1.542,0.362-2.315c0.239-1.614,0.542-3.188,0.942-4.762c0.806-3.13,1.85-6.252,3.456-9.144
				c1.59-2.891,3.757-5.526,6.375-7.596c2.614-2.079,5.632-3.577,8.735-4.533c3.108-0.963,6.293-1.424,9.43-1.574
				c6.291-0.243,12.376,0.7,18.213,2.015c5.833,1.382,11.431,3.227,16.856,5.245c1.355,0.511,2.689,1.054,4.022,1.596l1.979,0.821
				l2.001,0.876c2.645,1.199,5.211,2.531,7.67,4.011c4.914,2.958,9.417,6.514,13.141,10.71c3.703,4.188,6.707,9.021,8.087,14.406
				c0.662,2.681,0.878,5.544,0.172,8.304c-0.074,0.339-0.184,0.69-0.318,1.046l-0.188,0.527l-0.202,0.438l-0.202,0.437l-0.263,0.499
				c-0.155,0.303-0.323,0.599-0.504,0.887c-0.704,1.165-1.539,2.25-2.481,3.221c-1.897,1.936-4.168,3.431-6.543,4.522
				c-2.384,1.09-4.865,1.801-7.328,2.313c-2.465,0.528-4.929,0.791-7.353,0.951c-2.422,0.156-4.813,0.266-7.219,0.138
				c-4.774-0.224-9.388-0.889-13.809-1.961c-4.412-1.083-8.651-2.582-12.458-4.773c-3.783-2.171-7.184-5.144-9.187-8.943
				c-1.002-1.882-1.628-3.924-1.891-5.955c-0.057-0.506-0.109-1.013-0.13-1.539c-0.024-0.54-0.025-0.914-0.018-1.486
				c0.011-0.995,0.089-1.988,0.257-2.964c0.328-1.951,0.991-3.835,1.969-5.502c0.975-1.67,2.25-3.107,3.652-4.298
				c2.841-2.37,6.157-3.729,9.364-4.459c3.223-0.72,6.388-0.886,9.359-0.607c2.967,0.316,5.753,1.029,8.222,2.222
				c1.214,0.585,2.425,1.354,3.336,2.193c0.942,0.792,1.793,1.652,2.583,2.51c1.538,1.75,2.802,3.69,3.208,5.836
				c0.202,1.061,0.127,2.135-0.13,3.077c-0.259,0.947-0.7,1.757-1.19,2.431c-0.998,1.344-2.133,2.222-3.164,2.836
				c-1.03,0.621-1.94,1.031-2.68,1.33c-0.739,0.303-1.321,0.468-1.708,0.582C848.531,164.947,848.333,165,848.333,165z"/>
		</g>
		<g>
			<path style="fill:#E2F5F3;" d="M1016.5,189.25c0,0-0.625,0.21-1.831,0.531c-0.601,0.161-1.345,0.394-2.217,0.653
				c-0.876,0.239-1.884,0.542-2.957,0.971c-0.539,0.206-1.081,0.475-1.62,0.745c-0.533,0.277-1.066,0.615-1.411,1.015
				c-0.362,0.402-0.527,0.754-0.493,1.193l0.012,0.171v0.043c-0.043-0.225,0-0.02-0.004-0.051l0.042,0.148
				c0.055,0.178,0.11,0.463,0.173,0.479c0.074,0.117,0.235,0.39,0.451,0.608c0.861,0.925,2.535,1.555,4.317,1.888
				c1.823,0.319,3.812,0.384,5.932,0.109c2.163-0.268,4.435-0.592,6.533-1.408c2.104-0.792,3.911-2.17,4.466-4.255l0.102-0.395
				l0.026-0.099c0.001,0.035,0.036-0.218,0.009,0.054l0.02-0.255l0.038-0.513c0.013-0.171,0.035-0.363-0.004-0.44
				c-0.058-0.216-0.048-0.403-0.108-0.653l-0.247-0.798c-0.446-1.069-1.209-2.102-2.126-3.042c-1.867-1.883-4.401-3.338-7.182-4.29
				c-1.399-0.45-2.862-0.82-4.376-0.972c-0.755-0.111-1.52-0.133-2.292-0.146c-0.748-0.033-1.628,0.024-2.421,0.027
				c-3.278,0.082-6.657,0.312-10.061,0.848c-3.371,0.561-6.906,1.357-9.838,3.206c-1.427,0.932-2.625,2.24-2.905,3.877
				c-0.303,1.628,0.268,3.438,1.201,5.014c0.946,1.604,2.145,3.059,3.517,4.448c1.316,1.341,2.894,2.534,4.539,3.577
				c1.651,1.052,3.433,1.943,5.31,2.638c1.871,0.703,3.808,1.297,5.809,1.696c7.976,1.642,16.723,1.124,24.842-1.781
				c4.057-1.439,7.929-3.57,11.257-6.391c0.403-0.366,0.823-0.715,1.216-1.094l1.153-1.162c0.639-0.784,1.543-1.715,2.067-2.565
				c0.64-0.835,1.146-1.8,1.67-2.744l0.635-1.481c0.201-0.497,0.318-1.021,0.485-1.529c0.55-2.065,0.647-4.234,0.284-6.356
				c-0.358-2.124-1.168-4.189-2.279-6.112c-1.104-1.931-2.529-3.711-4.137-5.333c-1.61-1.62-3.363-3.136-5.277-4.464
				c-7.637-5.371-16.926-8.617-26.456-9.906c-9.563-1.248-19.467-0.021-28.775,3.238c-4.662,1.604-9.141,3.768-13.382,6.318
				c-1.052,0.65-2.129,1.268-3.135,1.991l-1.534,1.049l-1.477,1.126c-1.995,1.473-3.855,3.111-5.634,4.838
				c-0.824,0.916-1.742,1.768-2.485,2.753l-1.165,1.444l-1.052,1.521c-1.353,2.052-2.508,4.269-3.139,6.627
				c-0.212,0.577-0.322,1.175-0.43,1.772c-0.104,0.598-0.272,1.191-0.277,1.798c-0.032,0.604-0.102,1.208-0.108,1.813l0.161,1.804
				c0.362,2.385,1.216,4.665,2.465,6.735c0.332,0.505,0.713,0.982,1.075,1.466c0.186,0.239,0.358,0.487,0.552,0.72l0.637,0.657
				l1.268,1.31l1.414,1.174c0.898,0.824,1.983,1.447,2.982,2.154c0.244,0.157,0.529,0.38,0.737,0.482l0.835,0.48l1.669,0.96
				c1.109,0.613,2.209,1.109,3.303,1.677l3.392,1.565l3.479,1.379l3.537,1.23c9.478,3.199,19.484,4.753,29.439,5.376
				c9.97,0.613,19.933,0.284,29.716-0.645c9.784-0.948,19.402-2.508,28.726-4.631c4.661-1.066,9.249-2.271,13.741-3.63
				c4.493-1.356,8.855-2.984,13.155-4.643c8.615-3.343,17.032-6.782,25.367-9.78c16.622-6.116,32.97-10.42,48.366-12.453
				c7.694-1.011,15.138-1.538,22.222-1.482c7.082,0.123,13.784,0.7,20.021,1.627c12.478,1.901,23.026,5.174,31.424,8.444
				c4.234,1.566,7.855,3.343,11.028,4.815c3.087,1.655,5.745,2.989,7.834,4.192c4.144,2.458,6.354,3.769,6.354,3.769
				s-0.578-0.282-1.698-0.829c-1.118-0.549-2.786-1.344-4.926-2.433c-2.16-1.053-4.899-2.197-8.065-3.622
				c-3.268-1.203-6.912-2.825-11.163-4.193c-1.054-0.361-2.136-0.732-3.246-1.112c-1.127-0.326-2.281-0.66-3.464-1.002
				c-1.182-0.339-2.391-0.685-3.626-1.039c-1.251-0.295-2.529-0.598-3.833-0.906c-2.598-0.655-5.332-1.186-8.164-1.751
				c-1.41-0.315-2.87-0.499-4.347-0.729c-1.48-0.208-2.976-0.486-4.512-0.648c-6.133-0.744-12.702-1.091-19.621-1.058
				c-6.922-0.04-14.202,0.493-21.739,1.5c-7.53,1.06-15.348,2.472-23.332,4.479c-7.988,1.986-16.15,4.483-24.45,7.367
				c-8.323,2.832-16.711,6.221-25.398,9.52c-8.702,3.334-17.821,6.226-27.236,8.52c-9.42,2.283-19.142,4-29.066,5.1
				c-9.923,1.083-20.062,1.554-30.287,1.064c-10.211-0.535-20.539-2.086-30.494-5.363c-1.241-0.417-2.459-0.909-3.687-1.365
				l-3.617-1.564c-1.179-0.589-2.361-1.157-3.536-1.766c-1.146-0.68-2.334-1.348-3.424-2.053l-1.596-1.076l-0.798-0.538
				c-0.348-0.219-0.551-0.417-0.833-0.627c-1.041-0.848-2.142-1.599-3.081-2.58l-1.452-1.397l-1.307-1.553l-0.647-0.777
				c-0.198-0.274-0.376-0.567-0.564-0.849l-1.11-1.703c-1.341-2.371-2.235-5-2.555-7.706c-0.296-2.713-0.023-5.447,0.666-8.042
				c1.441-5.202,4.361-9.784,7.809-13.768c1.776-1.946,3.627-3.838,5.668-5.493l1.532-1.237l1.591-1.154
				c1.046-0.794,2.16-1.478,3.254-2.195c4.428-2.787,9.196-4.952,14.092-6.64c4.901-1.679,9.962-2.844,15.079-3.413
				c1.277-0.142,2.555-0.278,3.868-0.312l1.953-0.089c0.636-0.009,1.25,0.012,1.875,0.017c2.568-0.03,5.112,0.253,7.639,0.544
				c5.038,0.709,9.968,1.954,14.64,3.786c4.682,1.798,9.126,4.15,13.145,7.077c2.019,1.451,3.885,3.11,5.607,4.9
				c1.719,1.793,3.263,3.777,4.475,5.973c1.219,2.185,2.122,4.579,2.504,7.079c0.392,2.497,0.219,5.079-0.471,7.476
				c-0.201,0.589-0.358,1.196-0.6,1.765l-0.762,1.685c-0.608,1.062-1.197,2.124-1.97,3.099c-0.735,1.072-1.463,1.76-2.286,2.72
				l-1.273,1.235c-0.433,0.401-0.892,0.771-1.335,1.155c-3.641,2.969-7.785,5.131-12.066,6.56c-8.566,2.87-17.616,3.24-25.854,1.337
				c-4.115-0.962-8.034-2.523-11.489-4.726c-1.726-1.111-3.335-2.332-4.769-3.805c-1.378-1.41-2.672-2.982-3.671-4.705
				c-0.489-0.875-0.924-1.786-1.21-2.771c-0.326-0.967-0.411-2.042-0.283-3.088c0.28-2.159,1.783-3.879,3.361-4.993
				c1.611-1.135,3.366-1.897,5.116-2.505c1.755-0.604,3.522-1.044,5.274-1.401c3.509-0.705,6.959-1.086,10.32-1.312
				c0.867-0.05,1.638-0.107,2.527-0.092c0.867,0,1.728,0.013,2.575,0.122c1.702,0.146,3.349,0.53,4.93,1.013
				c3.146,1.026,6.035,2.595,8.338,4.831c1.136,1.129,2.145,2.412,2.812,3.944c0.134,0.403,0.266,0.804,0.397,1.203
				c0.113,0.423,0.157,0.938,0.21,1.402c0.036,0.264,0.016,0.417,0.006,0.589l-0.03,0.513l-0.015,0.256
				c-0.048,0.355-0.033,0.184-0.053,0.302l-0.034,0.149l-0.142,0.593c-0.417,1.58-1.371,3.01-2.524,4.022
				c-1.156,1.026-2.456,1.692-3.721,2.183c-2.55,0.957-5.012,1.329-7.305,1.536c-2.345,0.242-4.653,0.121-6.759-0.31
				c-2.092-0.482-4.145-1.159-5.696-2.821c-0.369-0.425-0.702-0.866-0.947-1.526c-0.152-0.352-0.146-0.489-0.201-0.706l-0.032-0.151
				l-0.04-0.2l-0.004-0.11l-0.01-0.437c-0.012-1.191,0.652-2.298,1.372-2.883c0.723-0.631,1.464-0.961,2.149-1.232
				c0.687-0.278,1.352-0.425,1.969-0.551c2.467-0.5,4.329-0.52,5.597-0.514c0.631-0.008,1.105,0.007,1.427,0.031
				C1016.337,189.241,1016.5,189.25,1016.5,189.25z"/>
		</g>
		<g id="Bigpart">
			<path style="fill:#E2F5F3;" d="M1370.5,210.75c0,0,30.333,27.583,79.25,26.5c42.002-0.93,87.583-29.583,109.583-42.917
				S1627.283,162.337,1628,95c0.34-31.911,21.109-31.13,33.313-27.063c12.5,4.167,17.386,16.391,15.188,24.229
				c-2.5,8.917-10.667,10.5-18.5,6.5c0,0,10.569-0.586,11.667-6.667c1.083-6-5.334-11.417-13.334-11.667s-20,2.5-21.5,14
				s7.001,23.166,25.792,24.416c15.799,1.051,38.625-5.75,41.875-26s-15.863-39.042-38.25-42.5c-28.583-4.416-37.75,3.584-43.5,42
				c-5.98,39.958-42.083,70.083-71.083,86.75s-73.167,35.167-101,37.667C1431.323,218.224,1389,219.667,1370.5,210.75z"/>
			<g>
				<g>
					<linearGradient id="SVGID_1_" gradientUnits="userSpaceOnUse" x1="1359.8359" y1="224.1421" x2="1332.7405" y2="77.8271">
						<stop  offset="0" style="stop-color:#DAF2EC"/>
						<stop  offset="0.3829" style="stop-color:#DEF3F0"/>
						<stop  offset="0.7151" style="stop-color:#E7F6FA"/>
					</linearGradient>
					<path style="fill:url(#SVGID_1_);" d="M1475.333,148.167c16.466-84.7,83.077-39.433,89.71-34.685
						c2.578-10.59,3.942-21.271,3.79-31.481c-0.667-44.667-14.955-63.876-37.666-64c-12.565-0.068-27.834,8.75-28.5,21
						c-0.57,10.486,9.746,18.859,21.833,19c7.167,0.083,15.825,0.188,17.167-8.842C1543.492,36.871,1531,38.833,1531,38.833
						s5.313,2.667,4.563,7.979c-0.601,4.253-5.187,5.646-10.979,5.688c-8.833,0.063-12.771-6.563-12.75-12.667
						c0.024-7.333,7.423-15.425,20.167-15c22.5,0.75,24.279,17.006,24,23.5c-0.333,7.75-4.23,26.282-32.667,33.833
						c-33.547,8.909-46.519-15.961-51.435-33.449c-8.761-0.973-29.912-1.434-46.898,13.285
						c-21.45,18.586-26.84,40.203-27.296,55.177C1447.901,115.254,1475.333,148.167,1475.333,148.167z M1564-9.997l-75,3.333
						c0,0-11.333,10.497-14.381,30.183c-0.713,4.606-0.653,9.569-0.318,13.902c8.821,29.784,26.925,41.275,48.199,40.245
						c16.65-0.806,29.83-15.532,30.833-29.5c1.167-16.25-11.501-21.022-22-21.167c-12.083-0.167-17.5,8.167-17.666,12.667
						s2.877,10.574,10.927,10.646c5.458,0.048,8.531-1.625,8.72-4.278c0.343-4.821-6.751-7.972-6.751-7.972
						c15.834-4.167,18.412,4.776,18.104,11.095C1544.334,56,1539.251,62.75,1524.833,62c-14.166-0.737-24.864-6.425-24.333-23
						c0.417-13,15.667-23.5,31-23.5c14.251,0,40.927,9.016,39.5,66.5c-1.197,48.249-22.18,79.554-36.579,95.459
						c59.2-41.557,88.225-72.188,88.246-118.792C1622.688,11.75,1564-9.997,1564-9.997z M1476.167,154
						c-25.84-31.976-63.146-35.188-78.496-35.032c-0.001,0.122-0.004,0.247-0.004,0.368c0,0-4.166,0.331-6.916,2.831
						c0,0-12.001-20.667-38.001-20.917S1312,125,1312,125s-68-7.75-124.75,19.25s-98.917,1.25-109-9.25
						c-4.867-5.068-25.083-18.667-23.25-48.625c0.439-7.19,1.106-15.146,7.25-20.625c27.75-24.75,64-0.25,75.75,8.5
						c8.904,6.631,29.652,28.653,19.5,46.75c-11.5,20.5-45.375,15.625-62.5,5.5c-14.736-8.712-25.5-26-16-35.75
						c11.128-11.42,35-5.75,47.25,3.5c10.499,7.928,14.75,17.303,5.25,29.401c0,0,25.5-13.401,0-35.151s-52.734-14.627-60.625-5.75
						c-8,9-10.379,32.696,21.417,49.708c33.875,18.125,63.958,8.792,73.958-6.708s5.875-39.625-22.5-59.5
						c-23.4-16.391-65.133-34.335-91-9.5c-9.06,8.698-10.956,18.918-11.333,29.667c-0.792,22.583,9.702,37.773,28.833,55.138
						c28.583,25.945,66.502,30.131,122,12.195c49.251-15.917,110.75-11.5,138.25,6s38.771,57.622,9.75,79.25
						c-21.917,16.333-59.417-0.667-57.25-29.5c1.519-20.207,21.116-25.257,34-19.25c12.333,5.75,17.75,18.25,12,25.25
						s-19,4.25-19,4.25s18.5,14.083,29,0c11.737-15.743-4.667-32.917-18.5-38.5c-14.422-5.821-47.906-7.584-48.5,27.5
						c-0.667,39.417,45.531,59.377,75.5,41c26.5-16.25,23-39,23-39s90,17.5,154.5-26.749c0.345-0.236,0.675-0.467,1.018-0.703
						c17.263-15.872,31.343-40.834,38.236-66.676C1489.75,69.751,1476.167,154,1476.167,154z"/>
				</g>
			</g>
		</g>
	</g>
	<g id="Twee">
		<linearGradient id="SVGID_2_" gradientUnits="userSpaceOnUse" x1="1864.7246" y1="441.8057" x2="1799.1287" y2="-24.9336">
			<stop  offset="0" style="stop-color:#1C3D43"/>
			<stop  offset="0.4568" style="stop-color:#2F646B"/>
			<stop  offset="1" style="stop-color:#448E96"/>
		</linearGradient>
		<path style="fill:url(#SVGID_2_);" d="M1721.333-14c0,0-98.666,164.5,36.667,247.333c0,0-21.653,19.471-1.001,46.379
			C1769.5,296,1795.25,312,1844.5,311.5c0,0,38,89.5,90,120.5V-7.333L1721.333-14z"/>
	</g>
</g>
<g id="Middle">
	<g id="Bushes">
		<g id="RIGHT">
			<path style="fill:#2E666C;" d="M966.25,743c0,0-20.249-30.001,28.417-25.667c0,0-17.333-25.334,20-28
				c0,0-11.001-16.666,7.666-25.666s26.334-3,26.334-3s0.073-33.581,44.666-31.001C1133.667,632,1143,665.5,1143,665.5
				s11.667-11.834,26-11.834s25.333,17.333,26,43S1180.333,735,1180.333,735l4.334,2.333c0,0,15.056-7.401,32,0
				c13.166,5.751,11.357,19.672,11.357,19.672s1.31,14.83-15.357,54.996L966.25,795.667V743z"/>
			<path style="fill:#29605E;" d="M974.25,736c0,0,7.5-2,9.5-8.5c0,0,11.5,19,26.75,0c0,0,25.75,16.75,11.75-22
				c0,0,23.75,12.5,22-24.75c0,0,4.75,19.25,18.75,8c0,0-26,50-5,31.75c0,0-2,25.75,17.25,4.5c0,0,32.5,15.25,20.75-20.5
				c0,0,16.25-6.25,15-21.5c0,0,10.5,8,17.75,2c0,0,1.5,16,19.5,11.25c0,0-32.75,25.25-10,21c0,0-25.25,21.75-7.75,18.75
				c0,0-12.5,33.5,21.75,16.75c0,0,13.75,29,12.5-11.75c0,0,9,21,25.5,13.75c0,0,19.75,11.25,43.25,0s19.75,19.418,14,27.084
				c0,0,27.5-22.334,52.25-1.584v6l-56.25,5.25h-271l2-35.25L974.25,736z"/>
		</g>
		<g id="LEFT">
			<path style="fill:#3F956D;" d="M708.75,665.5c0,0,10,0.75,14,11.25s10,8.75,15.5,7.75s13.5-3.25,19,14.5c0,0,4.5-3.75,9.25-2
				c0,0,17-28,29.75-12.75c0,0,8.971-21.179,30-12.5c15.75,6.5,7,31,7,31s10.369-2.884,12.417,4.75C847.5,714.333,841,717,841,717
				s8.5-1.334,10.833,8.833c0,0,26.667-10.5,31.167,8.667c0,0,17-12.166,18.667,8.334c0,0,8.33-11.999,20.83-2.833
				c0,0,12.133-4.304,26.667-2c13.667,2.166,23.667-6.834,31.5-6.667s18.332,8.666,18.166,17.833s-23.833,32.667-23.833,32.667H627
				l18.667-68.5l1.667-42.667L708.75,665.5z"/>
			<path style="fill:#377E55;" d="M644.75,748.5c0,0,19.75,19.75,26.75-28c0,0-1.25,30,24.75,6.25c0,0-0.25,6-4.25,13
				S688,753,696.25,750c0,0-4.25,7.5-11.25,11.5s-10.5,13-10.5,19.5l-32.75-1.25L644.75,748.5z"/>
			<path style="fill:#377E55;" d="M744.5,776.75l-2-8.25c0,0,18.25,17,27-25.5c0,0,5,19.5,15.25,15.75c0,0-5,12.75,2.5,18H744.5z"/>
			<path style="fill:#377E55;" d="M823,781c0,0,0.75-8.5-5-18.75c0,0,8.5,15.75,18.75-8.25c0,0,0.25,23,12,4.25
				c0,0-4.75,12.5,14.75,11c0,0-5.75,5.75-5,11.75H823z"/>
			<path style="fill:#377E55;" d="M923,778.25c0,0,5.5-8,5-18.375c0,0,5.25,17.625,22.5-3.625c0,0-6.75,21.75,15.75,4.75
				c0,0-5.25,9.5-4,17.25H923z"/>
		</g>
	</g>
	<g id="House">
		<path style="fill:#C0AF56;" d="M-6.333,525.667c0,0,7,4.667,19,4.333c0,0-4.833-5.983,8.333-2.158s20.833,0,20.833,0L46.5,511.5
			l-52.833-56V525.667z"/>
		<polygon style="fill:#7C543F;" points="753.667,662.334 652,684.667 655,674.5 695.167,666.167 745.667,661.5 		"/>
		<path style="fill:#CFC59F;" d="M64.333,779.667c0,0-2-35.001-10.333-58.667s-3.667-59-3.667-59L44,653.667V534l9-34.25
			L419.333,490l238,177.333c0,0,2.667,37.667-4.333,66.667s-4,55.5-4,55.5L64.333,779.667z"/>
		<path style="fill:#E8E5BB;" d="M183.333,777.333c0,0,10.667-43.333-6.667-129.333l-3.333-130.667l234.667-16L470,400
			l103.333,5.333V496L724,510v145.333l-102,5.334L602.333,668l29,26c0,0,4.167,10.5,0.417,14.75S618.5,721,619.5,712
			c0,0-3.75,3.5-7,3c0,0-10,30-8.5,72l-148.333-3.667L452,770.667l7.667-12.334l49-100.333L519,642.666c0,0,6.875,0.084,8.75-6.916
			s11.875-8.75,16.125-12s8.875-10.375,8.25-23.875l-38.458-7.375L431,607.167c0,0-4.75-33.167-7.75-89.167l-13,4.5L414,581
			l-11.25-0.25V638l3,12.75l0.25,5.917c0,0-11,53.666-18,126l-40-5.917c0,0,2.75-37.25,12.75-72.5l-1.25-1.583
			c0,0-2.167,10.166-6.167,3.166l-10.167,2.334c0,0-3.167,46.5-0.5,70.833L183.333,777.333z"/>
		<path style="fill:#7C543F;" d="M-6,668l57,3l125.667-15.666c0,0,14.667-14.001,41-5.334l64.666,1l30.333,1.667c0,0,23.667-2,43,0
			s29,5.333,50.333,4c0,0,1.333-10.666,4.667-17.333L407,636l-230-10.666L-6,661.667V668z"/>
		<path style="fill:#7C543F;" d="M509,642.667L750,659l3.667,3.334L659,678c0,0-25-0.5-32-5c0,0-13,2.75-27.75,3.75l-82.5,6
			L509,642.667z"/>
		<g id="Windows">
			<polygon style="fill:#FBDDE4;" points="459.75,767 459.75,694.5 468.75,654.5 486.5,640.167 506.75,654.5 518.5,716.25 
				518.5,769.25 			"/>
			<polygon style="fill:#FBDDE4;" points="552,774.835 552,744.833 552,741.25 552,714.333 554.5,710 567.125,708.125 585.5,710 
				590.75,717 590.75,776.5 555.5,776.5 			"/>
			<polygon style="fill:#FBDDE4;" points="472.958,462 501.333,451.25 529,458.5 529,546 504,543 475.637,544.204 			"/>
			<polygon style="fill:#FBDDE4;" points="264.25,551.167 264.25,574.25 324.75,576.5 324.75,523.25 			"/>
			<polygon style="fill:#FBDDE4;" points="598.75,502.75 596.5,601.833 651.333,606.084 651.333,510.253 			"/>
		</g>
		<g id="Lightwoodbeams">
			<polygon style="fill:#BA865C;" points="162.667,626.334 162.667,531.333 179,527 179,626.334 			"/>
			<polygon style="fill:#BA865C;" points="210.75,544.25 261,629 265.5,625 224.25,552.75 			"/>
			<polygon style="fill:#BA865C;" points="173.25,567 417.5,576.667 419,585 173.25,576 			"/>
			<polygon style="fill:#BA865C;" points="259.25,558.75 257.25,627.75 265.5,621 266.75,558.75 			"/>
			<polygon style="fill:#BA865C;" points="305.5,576 303.333,630.167 310,630.834 313,578.5 			"/>
			<polygon style="fill:#BA865C;" points="348.5,580.167 345.167,631.667 353.5,631.667 353.5,578.167 			"/>
			<polygon style="fill:#BA865C;" points="374.333,579 371.5,633.167 378.667,633.167 381,579 			"/>
			<polygon style="fill:#BA865C;" points="399.5,581.5 397,633.167 406,634.834 406,580.834 			"/>
			<polygon style="fill:#BA865C;" points="412,631.667 412,640.167 173.25,629 173.25,620.5 			"/>
			<path style="fill:#BA865C;" d="M432,620.5c0,0,42.5-30.75,120.5-18.25l3-12.25c0,0-68.333-14.833-124.5,17.167L432,620.5z"/>
			<path style="fill:#BA865C;" d="M426.878,569.246c0,0,44.455-37.746,121.122-12.913l-2.833,34.167l5.167,0.667l4.167-40.334
				c0,0-56.485-31.987-128.318,10.347L426.878,569.246z"/>
			<polygon style="fill:#BA865C;" points="447.333,554.833 448.333,601.833 456.5,600.667 455,551.167 			"/>
			<polygon style="fill:#BA865C;" points="471.333,547.833 471.333,595.5 480.667,592.833 479.167,546 			"/>
			<polygon style="fill:#BA865C;" points="499.167,544.833 497.333,591.167 503.833,591.167 505.333,544.833 			"/>
			<polygon style="fill:#BA865C;" points="528.667,547.833 528,591.167 534.833,591.167 533.333,547.833 			"/>
			<polygon style="fill:#BA865C;" points="443,500.337 469.5,547.004 476,544.833 447.333,495.17 			"/>
			<polygon style="fill:#BA865C;" points="529,546 565.5,481.339 565.5,474.506 529,538.006 			"/>
			<polygon style="fill:#BA865C;" points="471.333,544.833 467.167,430.5 467.167,419 473,416.25 478.75,543.75 			"/>
			<polygon style="fill:#BA865C;" points="528,544 528,414 534,416.25 532.5,546 			"/>
			<path style="fill:#BA865C;" d="M472.958,465.5c0,0,26.97-18.021,58.458-2.25v-8c0,0-30.5-18-58.458,3.75V465.5z"/>
			<path style="fill:#BA865C;" d="M472.958,490.5c0,0,29.542-13,58.042-1v-7.25c0,0-26.583-10-58.042,1.25V490.5z"/>
			<path style="fill:#BA865C;" d="M475,521.087c0,0,27.75-12.413,56,0v-5.517c0,0-24-10.18-57,0L475,521.087z"/>
			<polygon style="fill:#BA865C;" points="501.333,543 504.25,453.5 508.25,453.5 510,543 			"/>
			<polygon style="fill:#BA865C;" points="550.25,595.5 717,605.5 717,613 552.5,602.25 548.333,599.333 			"/>
			<polygon style="fill:#BA865C;" points="512,650 753.667,662.334 753,652.75 517.5,642.75 			"/>
			<polygon style="fill:#BA865C;" points="713.25,657 713.25,517.5 731,519 731,656.25 			"/>
			<polygon style="fill:#BA865C;" points="695.25,607.75 695.25,654.5 687.25,652.75 687.25,607.75 			"/>
			<polygon style="fill:#BA865C;" points="626.25,604.25 626.25,650.75 618.75,650.75 618.75,603.533 			"/>
			<polygon style="fill:#BA865C;" points="598.75,603.533 597,648.25 590.75,648.25 591.5,601.833 			"/>
			<polygon style="fill:#BA865C;" points="571,601.833 571,648.25 563.25,646.75 563.25,599.5 			"/>
			<polygon style="fill:#BA865C;" points="592.75,601.833 594.75,505.5 600.25,506.75 598.75,601.833 			"/>
			<polygon style="fill:#BA865C;" points="648.75,604.25 647.5,511.045 657.5,511.045 655,606.25 			"/>
			<polygon style="fill:#BA865C;" points="657.5,652.75 717,531 717,513.75 654.5,644 654.5,652.75 			"/>
			<polygon style="fill:#BA865C;" points="596.5,531 651.333,539.132 651.333,546 596.5,539.132 			"/>
			<polygon style="fill:#BA865C;" points="597.167,557.333 649.833,560.167 649.833,568 596.5,561.667 			"/>
			<polygon style="fill:#BA865C;" points="596.5,580.167 649.833,584.833 649.833,589.333 596.5,585.5 			"/>
			<polygon style="fill:#BA865C;" points="623.917,601.833 622.5,511.045 626.25,511.667 628.5,603.533 			"/>
			<polygon style="fill:#BA865C;" points="488.25,771.25 485.5,645 489.25,645 494.5,771.25 			"/>
			<polygon style="fill:#BA865C;" points="461.5,738 517,741.25 517,735.5 461.5,733.75 			"/>
			<polygon style="fill:#BA865C;" points="463.5,705.75 517,710 515.5,704.25 461.5,701 			"/>
			<path style="fill:#BA865C;" d="M552,714.333c0,0,10-8.999,33.667,2.834v26.5c0,0-21.667-5.834-33.667-2.417v3.583
				c0,0,16.333-0.667,33.667,5.5v24.502c0,0-17.5-5.833-33.667,0v3.5l40.833,0.667L594,708.125c0,0-29-9.96-42,1.875V714.333z"/>
			<polygon style="fill:#BA865C;" points="322.667,576 322.667,530.333 326.833,528.5 326.833,576.834 			"/>
			<polygon style="fill:#BA865C;" points="324.75,555.667 279.5,554.834 283,548.834 324.75,548.834 			"/>
			<rect x="292.625" y="552.667" style="fill:#BA865C;" width="5.042" height="22.5"/>
			<polygon style="fill:#BA865C;" points="316.25,745.75 316.25,713.25 292.625,710 			"/>
		</g>
		<g id="Darkwood">
			<polygon style="fill:#7C543F;" points="44.25,515.25 39.75,525.25 39.75,651.25 47,649.5 47,526.75 53,514 			"/>
			<polygon style="fill:#7C543F;" points="43.5,538 111.158,504 108,496.5 43.5,530.5 			"/>
			<polygon style="fill:#7C543F;" points="68.833,646 43.5,540 43.5,534 48.667,532.667 74.75,643.625 			"/>
			<polygon style="fill:#7C543F;" points="111,636.5 138.833,540 146.667,540.834 119.833,636.834 			"/>
			<polygon style="fill:#7C543F;" points="155,627.5 155,544.5 167.75,538 167.75,625.75 			"/>
			<polygon style="fill:#533726;" points="173.25,620.5 173.25,629 -6,667.25 -6,658.75 			"/>
		</g>
		<path style="fill:#C0AF56;" d="M282.5,670c0,0,7.5,2.5,12.5,0s10.5,2.167,11.167,4.5c0,0,4.667-0.333,10,2.167
			s7.666,1.667,10.833,0s9.167-2.334,13.5,5.833s8.833,10.666,12.5,11.833s7.334,8.334,1.667,14.334c0,0,8.833-0.668,8.167-8.834
			c0,0,6.333-7.999-1-14.166s-12.709-10.163-13.5-18.667c-0.667-7.167-9.605-6.536-16.5-9.167
			c-12.667-4.833-23.167-14.832-48.667-10.666L282.5,670z"/>
		<path style="fill:#C0AF56;" d="M449,776.667c0,0-1-14.667,3-16.667c0,0-2.25-65-6.5-88c0,0,6.75-18-4.25-14.5
			c0,0,2.252-26.755,17.75-27c10.5-0.166,17.5-6,17.5-6s-3.333,4.417-0.917,5.584s6.25-0.083,7.833-1.5s5.75-0.916,9,1.417
			s6.833-1.25,5.167-3.5c0,0,1.583,0.249,3.75,3.416s4.75,1.501,6.917,0.334s5.75,1.5,7.917,3.75c0,0,9.169,4.127,7.833,11.25
			c-1,5.332-7.5,3.333-7.5,3.333s4.333,11.832,7.083,23.249c0,0,27.048-9.7,45.667-12.958c15-2.625,16.5,1.125,20.25,4.125
			s22.625,10.875,30.625,15.5S639,694.875,632.25,709.25c0,0,0.25-5-6.875-10S607.625,688,607.625,688S602,697,595,684.5
			c0,0-12.375,12-20.375,2.125c0,0-12.375,9.5-13.25,4.5c0,0-2.125-2-6.25,1.125s-23.75,16.875-23.75,16.875s1.375,16.625-3,8.375
			c0,0,4.625,29.834,3.375,59.167H514.5c0,0,0.5-124.999-26.833-127.166S465.75,775.5,465.75,775.5L449,776.667z"/>
		<polygon style="fill:#E7E4B8;" points="458.25,775.833 456.833,766.167 521.167,766.167 523,775 		"/>
		<path style="fill:#C0AF56;" d="M472.75,413.75c0,0,11.5,0.625,14.375-1.375s6.75,2.125,7.75,6.5s8.875,4.25,15.375,0
			s11.625-2,18.375,1.125s15.375-1.25,17.25-4.375c0,0,7.25,7.75,14,7.375s6.25,5.25,6.375,7.875c0,0-6.25,59.125-7.5,76.625
			c0,0,17.583-3.5,36.083,2.167s44.833,9.167,90.5,8.167c0,0,18.683,12.765,20.667,4.5c1-4.167,3.667-1.167,7,1.5s13,6,10.667-2.5
			c0,0,39.167,23,46.167,7c0,0,2.488,6.472,9,7.167c4.069,0.434,5-1.333,7.5-1s3.75,2.258,7.667,2.25
			c3.171-0.006,20.167-7.583,24.833-26.917c0,0,8,3.333,14.667-4.167L834.667,486l-44.333-3.333L636.5,441.5l-81-91.5h-55
			L472.75,413.75z"/>
		<path style="fill:#E8E5BB;" d="M557-13c0,0,16.5,26.25,16,49.25s-2.75,26-6,36.75s-7.5,31.25-3.75,63l25,3V-17.5L557-13z"/>
		<path style="fill:#E5DD82;" d="M493.5,116.5c0,0,40-8.5,77,17.5l45.5,11l26.5,13c0,0,10,17.5,0,42.5S635,255,635,255
			s5.25-2,9.25,9.5s18.571,75.586,28.417,95.833c17.667,36.333,81,104.333,160.833,125.667c0,0-30.833,26-77.5,4.333
			c0,0-44.25,14.917-58,3.917c0,0-1.333,19.417-22.833,0.583c0,0-7.036,9.907-18.833-1.167c-8.167-7.667-14.834-2.5-24.167-0.833
			s-24.833,2-35.333-4s-16-4.833-16-4.833s-0.5-12.667,12-14.167s14.167-13.667,14-19.5s-6-19.167-14-19.667c0,0,2.5-12-10.5-22
			c0,0,3-8.666-18.833-16.333c0,0-8-13.5-17-24.167s-29.5-9-40.833-7.667l-12.167-242"/>
		<path style="fill:#C0AF56;" d="M599,285.667c0,0-10.333,21.667,0,21.667c4.5,0,5.333-6.167,5.333-6.167s1.333,3.833,6,3
			c0,0,6.542-2.042,4.667-17.333c0,0,3.167,4.833,8.25,2.396c5.234-2.51,2.375-8.979,2.375-8.979s5.5,2.375,5.75-6
			c0,0-4.125,4-10.125-3.125c0,0,3.375,10-0.75,12.25s-10.25-9.125-10.25-9.125S615,297.875,609.5,299s-6.625-11.5-6.625-11.5
			s-0.25,11.25-2.5,11.5S597.25,292.833,599,285.667z"/>
		<path style="fill:#C0AF56;" d="M623.125,360c0,0,7.625,9.75,10.375,8.25s-2.75-10.875-2.75-10.875S637.625,367.75,641,366
			s-1.125-8.625-1.125-8.625s6.25,11.75,14.375,8.375c0,0-4.5,7.063-9.875,2.657c0,0,0.125,3.843-2.25,4.468S636.75,370,636.75,370
			s1.375,3.125-1.5,3.75S623.375,369.125,623.125,360z"/>
		<polygon style="fill:#BA865C;" points="649,605.5 649,652.75 655.5,652.75 655,606.25 		"/>
		<path style="fill:#E8E5BB;" d="M574.333-13c0,0,5,112.667-4.667,153.333c0,0,14.667,11,54,8.333c0,0,2-33.667-5.667-50.333
			l-8.667-4.667L608.667,84l0.667-14l-8-78.667L573.667-13"/>
		<path style="fill:#CDC89E;" d="M574.333,73.667c0,0,5.666-1.667,5.833,8.833s3.378,34.048-12.167,34.667
			c-7.644,0.304-8.5-1.542-8.375-3.417s-2.56-20.813,3.875-39.5C564.299,71.929,567.792,73.834,574.333,73.667z"/>
		<path style="fill:#CDC89E;" d="M615.5,67.375c0,0,1.25,16.875,1.625,19.5L615.5,88l2.25,2.875l1,12.5
			c0,0-13.625,2.625-17.75,1.625s-2.75-5.25-3-8.875s1.75-6.875,4.75-7.5c0,0-9.25-0.75-9.375-8.625s-2.25-22.5,8.625-18.625
			S615.5,67.375,615.5,67.375z"/>
	</g>
</g>
<g id="Foreground">
	<g id="Ground">
		<linearGradient id="SVGID_3_" gradientUnits="userSpaceOnUse" x1="958.3413" y1="1100.0625" x2="958.3413" y2="771.3203">
			<stop  offset="0" style="stop-color:#5E7D71"/>
			<stop  offset="0.6613" style="stop-color:#6F8F80"/>
		</linearGradient>
		<path style="fill:url(#SVGID_3_);" d="M-15.861,771.579c0,0,970.611-3.079,1954.403,11.999l-6,316.484H-21.86L-15.861,771.579z"/>
		<g id="Deetz">
			<path style="fill:#99BAAA;" d="M190.833,799.667c0,0,9,1,16,0C206.833,799.667,198.333,796.667,190.833,799.667z"/>
			<path style="fill:#99BAAA;" d="M29.167,818.333c0,0,32.833-3.667,48.833-1s20.833,0.89,22.833-0.972
				C100.833,816.361,53.334,812.499,29.167,818.333z"/>
			<path style="fill:#99BAAA;" d="M32.25,984.75c0,0-15.25-6.75-39.5-3.25v1.122C-7.25,982.622,11,980.75,32.25,984.75z"/>
			<path style="fill:#99BAAA;" d="M23.167,971.501c0,0,33.5,5.166,41.5-1.334s-65.833-14.666-73.333-16.666l1.417,2.833l4.917,1
				c0,0,57.202,7.044,64.5,12.5C67,973.447,35.333,965.501,23.167,971.501z"/>
			<path style="fill:#99BAAA;" d="M-1.333,952.667c0,0,16.833-11,77.5-4.5c0,0-57.167-0.666-77.5,5.334V952.667z"/>
			<path style="fill:#99BAAA;" d="M105.5,949.807c0,0,56.5-6.64,74.5-1.473C180,948.334,166.064,937.453,105.5,949.807z"/>
			<path style="fill:#99BAAA;" d="M178.667,976.667c0,0,15.167,3.166,24.333-2C203,974.667,185.833,972.833,178.667,976.667z"/>
			<path style="fill:#99BAAA;" d="M105.5,904.333c0,0,20.5-15.333,86.5-1C192,903.333,127.667,882.833,105.5,904.333z"/>
			<path style="fill:#99BAAA;" d="M146.667,912.333c0,0,5.5-11,94.167-6.667C240.833,905.666,148.5,896.333,146.667,912.333z"/>
			<path style="fill:#99BAAA;" d="M196.833,1060.667c0,0,31.833,5.333,38.333-6.667C235.167,1054,216.167,1062.167,196.833,1060.667
				z"/>
			<path style="fill:#99BAAA;" d="M171.833,1062.667c0,0-25.834,5.666-29.667,14c0,0,56.167-7,73.167,5.167H212
				c0,0-27.77-9.12-60.667-3.167c-17.5,3.167-14.167-4.001-11.167-6.417S159.333,1061.833,171.833,1062.667z"/>
			<path style="fill:#99BAAA;" d="M273.5,824c0,0,11.5,2,14.167-3C287.667,821,276,819.667,273.5,824z"/>
			<path style="fill:#99BAAA;" d="M304.667,834.333c0,0,15.333,3.5,28.833-3.333C333.5,831,310,832.833,304.667,834.333z"/>
			<path style="fill:#99BAAA;" d="M322.667,1015.667c0,0-4.833-2,1.5-2.833s44.333-6.001,70.5,10.333c0,0-3.765-12.334-36.882-13
				S308.667,1010.667,322.667,1015.667z"/>
			<path style="fill:#99BAAA;" d="M434.667,1075.167c0,0,12.167,1.166,13.833-3.167C448.5,1072,434.333,1069.667,434.667,1075.167z"
				/>
			<path style="fill:#99BAAA;" d="M296.25,922.5c0,0,73-17.707,112.75-14.854s46.25,1.773,48-0.312c0,0-53.074-6.957-94.5,1.415
				S297.75,918.25,296.25,922.5z"/>
			<path style="fill:#99BAAA;" d="M313.667,849.5c0,0,21-6.5,37.5-6s52.667,11.473,79.5,2.986c0,0-40.422,1.457-46.5,0.098
				C369.964,843.406,332,835.333,313.667,849.5z"/>
			<path style="fill:#99BAAA;" d="M481.5,1024.25c0,0,0.75-3.75,23-3.25C504.5,1021,477.875,1016.625,481.5,1024.25z"/>
			<path style="fill:#99BAAA;" d="M487,1039.75c0,0,52-9.583,82.667,4.417C569.667,1044.167,544,1025,487,1039.75z"/>
			<path style="fill:#99BAAA;" d="M438.667,898.334c0,0,56.167,1,60.5,2.5c0,0,3.5,5.333,10,5.5c0,0-6.5-7.833-12.333-8
				S443,896.001,438.667,898.334z"/>
			<path style="fill:#99BAAA;" d="M499.833,849.695c0,0,31.667-4.556,43.5-8.292C543.333,841.403,504.833,844.724,499.833,849.695z"
				/>
			<path style="fill:#99BAAA;" d="M526.667,877.667c0,0,13.833,2.668,25,1.834C551.667,879.501,528.5,873,526.667,877.667z"/>
			<path style="fill:#99BAAA;" d="M549.5,850.667c0,0,32.665-4.168,74.332,2.166C623.832,852.833,586.668,840.667,549.5,850.667z"/>
			<path style="fill:#99BAAA;" d="M592.167,945.167c0,0,28.334,1.666,49.667-2C641.833,943.167,599,943.5,592.167,945.167z"/>
			<path style="fill:#99BAAA;" d="M576,992.75c0,0,5,3,14,0s48.334-3.582,70.167-1.249s52.333,3.634,74.833-1.434s75.5-0.683,82.5,0
				c0,0,11.75,3.349,16.25,4.016c0,0-12.375-4.522-13.25-6.428c0,0-52-5.53-86.125,1.22s-71.75,1.375-76.5,0.25
				S581,987.25,576,992.75z"/>
			<path style="fill:#99BAAA;" d="M688.667,944.355c0,0,17.333,7.813,36,6.646C724.667,951.001,728.5,949.25,688.667,944.355z"/>
			<path style="fill:#99BAAA;" d="M706.716,873.5c0,0-36.216,0.5-38.883-1s7.667-5.334,23.667-7.167s44.667-5.332,51.667-7.666
				c0,0-20.667-4.334-27.333-6.834s-6.667-2.5-6.667-2.5s-50.667,0.834-55.667,2.334c0,0,38.5,0.221,55.167-0.89
				c0,0,20.833,7.89,27.667,7.89c0,0-72.267,6.868-71,15.166C666,877.197,700.433,875.333,706.716,873.5z"/>
			<path style="fill:#99BAAA;" d="M741.667,780.333c0,0,9.833,3.167,27.167,2.667C768.833,783,751,777.666,741.667,780.333z"/>
			<path style="fill:#99BAAA;" d="M641.667,795c0,0,37.166,5.833,60.833-0.667s46.667-0.522,57.5,3.072
				c0,0-28.167-15.404-61.667-3.738C691.098,796.187,646.334,796.667,641.667,795z"/>
			<path style="fill:#99BAAA;" d="M698.333,888.667c0,0,33.833-9.167,50.167-2C748.5,886.667,727.667,873.333,698.333,888.667z"/>
			<path style="fill:#99BAAA;" d="M747.5,888.667c0,0,14-0.709,22.5-3.688s31.5,4.813,45.167,0
				C815.167,884.979,784.833,876.333,747.5,888.667z"/>
			<path style="fill:#99BAAA;" d="M820.75,842.5c0,0,34.583-2.833,54.083,4.167C874.833,846.667,846.833,834.166,820.75,842.5z"/>
			<path style="fill:#99BAAA;" d="M869.75,823.5c0,0,58.583-3.833,73.083,0c0,0,5,0.834,8.833,5.167c0,0,0.512-6.09-6.167-6
				c0,0-6-3-12.333-3S882.833,819,869.75,823.5z"/>
			<path style="fill:#99BAAA;" d="M991.25,961.75c0,0,28.75-1,39.25-5.75C1030.5,956,1027.75,967.25,991.25,961.75z"/>
			<path style="fill:#99BAAA;" d="M967.167,964.5c0,0-27.167,7-29.333,14.5c0,0,61.684-7.591,73.042,5.333
				c1.296,1.475-1.875,2.168-9.208,3.334s-40.213,10.475-100.833,12.833c-30,1.167-34.833-2.167-34.833-2.167
				s63.833,1.333,88.167-3.5s33.135-4.325,52.167-9.311c4.541-1.189-4.833-4.022-9.833-5.022s-41.501-3.167-60.834,0.833
				C935.667,981.333,925.667,970.333,967.167,964.5z"/>
			<path style="fill:#99BAAA;" d="M893.75,1069.75c0,0,44.25-2.25,59.583,1.417s22.5,5.334,22.5,5.334l-33.5,5.166l40-4.333
				c0,0-23.833-7.667-31.667-9.5S892.833,1067.499,893.75,1069.75z"/>
			<path style="fill:#99BAAA;" d="M981,920.75c0,0,19.25-9,51.5-5.75l16.667,11.001c0,0,41.833-15.833,82,14
				c0,0-28.834-31.834-81.667-15.667l-15-10.042c0,0-19.5-5.291-35.333,0.709C994.053,916.785,980.75,913.5,981,920.75z"/>
			<path style="fill:#99BAAA;" d="M979.833,818.501c0,0,36-2.334,51.5-0.834s19.5,2.165,22.167,0.166c0,0-0.834-2.332-25.167-1.999
				S986.833,813.335,979.833,818.501z"/>
			<path style="fill:#99BAAA;" d="M1056.082,789.25c0,0,37.918-0.25,50.168,3.25C1106.25,792.5,1097.914,784.25,1056.082,789.25z"/>
			<path style="fill:#99BAAA;" d="M1112.667,792.5c0,0,3.667,7.167,21.167,4C1133.834,796.5,1117.5,796,1112.667,792.5z"/>
			<path style="fill:#99BAAA;" d="M1144.334,799.833l14.916,0.834C1159.25,800.667,1150.334,795.166,1144.334,799.833z"/>
			<path style="fill:#99BAAA;" d="M1109.25,956c0,0-8.75-1,4.5-4.5s52.25-13.75,100-7l9.75,3.25c0,0-6.499-4.419-8.666-5.501
				s-58.366-6.35-102.333,6.876C1099.21,953.123,1105.833,955.833,1109.25,956z"/>
			<path style="fill:#99BAAA;" d="M1265.75,1029.75c0,0,36.25-4.25,74.75,2C1340.5,1031.75,1295.75,1020.75,1265.75,1029.75z"/>
			<path style="fill:#99BAAA;" d="M1226.25,824.25c0,0,10.5,2,13.75-3C1240,821.25,1228.75,820,1226.25,824.25z"/>
			<path style="fill:#99BAAA;" d="M1256.834,834.667c0,0,20.333,2.167,28.833-3.5
				C1285.667,831.167,1267.001,831.667,1256.834,834.667z"/>
			<path style="fill:#99BAAA;" d="M1147.5,909.5c0,0,7.75,1.75,13.25,0s62.25,0,71,0s44.75,4.805,59,0.777s73.75-6.527,99.75-3.777
				c0,0,7,6,15,4c0,0-9.833-0.485-12.666-5.159c0,0-47.834-5.326-78.667,0s-56.166,5.018-80.833,2.089S1177,906.5,1147.5,909.5z"/>
			<path style="fill:#99BAAA;" d="M1266.25,849.25c0,0,21.75-6.5,38.5-6s25.75,7.25,49,6s29.75-1.5,29.75-1.5
				s-47.25,0.377-52.25-1.437s-13.5-3.091-13.5-3.091S1285.833,837.499,1266.25,849.25z"/>
			<path style="fill:#99BAAA;" d="M1385.167,789.001c0,0,8.001,2.834,22.834,0s38.833-1.334,38.833-1.334
				S1397,784.335,1385.167,789.001z"/>
			<path style="fill:#99BAAA;" d="M1426.667,837.667c0,0,5.334-0.166,9.834-2s36-1.167,36-1.167S1430.584,830.084,1426.667,837.667z
				"/>
			<path style="fill:#99BAAA;" d="M1440,915.5c0,0,15.5,5,36,2.75s41.5,0,60.5-4.5S1580,904,1580,904s3.75-2.75-2-5
				s-56.299-6.75-67.399-3c0,0,8.399-8.25,27.899-13.25c0,0-33.679,4.115-32,15.25c0.75,4.974,30.5-4.918,68.75,2.791
				c0,0,4.25,1.656,0,2.183s-47.5,12.026-61.5,11.526S1446,914.25,1440,915.5z"/>
			<path style="fill:#99BAAA;" d="M1370.333,1030.167c0,0,46.833,1.166,59,1.583s22.667,4.917,22.667,4.917
				s-75.146,6.93-71.167,15.333c1.386,2.926,35.763,1.442,41.001,1.199c0.433-0.021,0.666-0.032,0.666-0.032l-0.233,0.012
				c0,0-38.434-0.178-37.934-2.012s32.501-7.71,43.334-9.188s32.166-4.812,32.166-4.812l-30.5-8.188
				C1429.333,1028.979,1377.166,1028.667,1370.333,1030.167z"/>
			<path style="fill:#99BAAA;" d="M1415.083,1066.5c0,0,35.25-5.001,50.584,0C1465.667,1066.5,1446.165,1057.499,1415.083,1066.5z"
				/>
			<path style="fill:#99BAAA;" d="M1464.001,1067.834c0,0,7.832,0.499,15.666-2.167s37.501,3.834,52.334-2.166
				C1532.001,1063.501,1488.001,1059.167,1464.001,1067.834z"/>
			<path style="fill:#99BAAA;" d="M1611,988.75c0,0,46.75-13.5,87-1.25C1698,987.5,1657.5,967.5,1611,988.75z"/>
			<path style="fill:#99BAAA;" d="M1756.5,1046c0,0,37.5,1.5,66.5,0s83.25-5.5,94.25,5.25c0,0,6.463,1.329-54.25,12.75
				c-20,4,34.75,17.75,61.5,12.25c0,0-48.25,0-61.25-10c0,0,40.75-2,54.25-10.75s-16.5-13.5-24.25-13.25s-82.246-0.211-101.25,2
				S1756.5,1046,1756.5,1046z"/>
			<path style="fill:#99BAAA;" d="M1762.833,927c0,0,57.334-11.167,64.667,4.333c0,0,29.002-7.835,55.667-2.833
				c19.333,3.627,19.166,1.5,19.166,1.5s-43.5-11.892-74.333-2.779C1828,927.221,1825.666,910,1762.833,927z"/>
			<path style="fill:#99BAAA;" d="M1563.334,880.5c0,0,32.167-3.5,38.667-6.5C1602.001,874,1601.001,883.333,1563.334,880.5z"/>
			<path style="fill:#99BAAA;" d="M1608.75,899.75c0,0,19.5,5.5,45.75,0C1654.5,899.75,1622.75,901.25,1608.75,899.75z"/>
			<path style="fill:#99BAAA;" d="M1575.5,855.75c0,0,22.5,3,27.75,0C1603.25,855.75,1582.75,852,1575.5,855.75z"/>
			<path style="fill:#99BAAA;" d="M1513.5,799.25c0,0,75.5-10.25,109.25,0C1622.75,799.25,1603.75,784.75,1513.5,799.25z"/>
			<path style="fill:#99BAAA;" d="M1645,833.75c0,0,45.75-4.5,74,7.25C1719,841,1681.25,821.5,1645,833.75z"/>
			<path style="fill:#99BAAA;" d="M1700.25,849.25c0,0,16-10,69-9.75C1769.25,839.5,1706.25,833.25,1700.25,849.25z"/>
			<path style="fill:#99BAAA;" d="M1719,868c0,0,15-1,22.25,0C1741.25,868,1726.75,875.75,1719,868z"/>
			<path style="fill:#99BAAA;" d="M1783.25,846.25c0,0,43.25-10,69.75,5C1853,851.25,1826.75,832,1783.25,846.25z"/>
			<path style="fill:#99BAAA;" d="M1834.75,852.75c0,0,28.75-8.25,57-3.5C1891.75,849.25,1859,839.25,1834.75,852.75z"/>
			<path style="fill:#99BAAA;" d="M1877.75,1005c0,0,32.25-0.25,44.5,2.75C1922.25,1007.75,1871.5,997,1877.75,1005z"/>
			<path style="fill:#99BAAA;" d="M1679.5,997c0,0-5-4,27.5-8.25s51,3.5,54,4.125c0,0,5-0.875-4.5-4.125
				c-3.892-1.331-18.284-5.002-35.313-4.125C1696.65,985.888,1669.021,992.72,1679.5,997z"/>
		</g>
	</g>
	<g id="Tree">
		<path style="fill:#5C2C42;" d="M245.938,809.5l18.813-0.75c0,0-22.5-24,23.25-10.5s56.25,4.75,61,2.75s29.25-7,44.5,0.5
			s24.25,1.5,24.25,1.5s-11.422-21.886-30.25-13.75c-5.88,2.541-9.75,2.5-9.75,2.5s-1-10,17-10.75c0,0-10.75-10.25-47-4.5
			c0,0-19.275-5.983-31.5-42.75c-4.673-14.054-11.5-23-16.5-30.75s-15-36.75-14.75-63.25s3.75-27.5,3.5-33.75
			c0,0,12.5-13.75,20-20.75s9.75-33,7.75-55.5L305.5,535c0,0,8,38.25-20.5,45.5c0,0-3.25-19.5-6-26.5l-14.75,6.25
			c0,0,8,13,7.75,23.25s-16.5,36.25-24.25,44.25c0,0-14.25-4.25-21.25-10.5s-8-19.25,4.25-28.5c0,0-13-7.5-15.5-22
			s-6.75-25.5-6.75-25.5l-14.25-11.5c0,0,21.5,50.25-6,59.75s-53.5-49.5-53.5-49.5H126c0,0,6.664,48.681,42.25,65.5
			c30.509,14.42,39.5,14.5,44.25,36.75s-4,91.25-43.25,122.75c0,0-14,2.25-24.75-2.25s-34-7.75-60,27.25c0,0-8.5,2.5-16.25,2.5
			s-14.333,5.168-20.917,14.834c0,0,24,5.667,42.667-8s37.667-5.333,41.667-4s12.833,4.416,25.083-0.834s36,2,36,2
			S220.625,765.249,245.938,809.5z"/>
		<linearGradient id="SVGID_4_" gradientUnits="userSpaceOnUse" x1="51.2593" y1="-51.563" x2="392.2412" y2="539.0351">
			<stop  offset="0" style="stop-color:#448E96"/>
			<stop  offset="0.5432" style="stop-color:#2F646B"/>
			<stop  offset="1" style="stop-color:#1C3D43"/>
		</linearGradient>
		<path style="fill:url(#SVGID_4_);" d="M-6.333,460c0,0,11.667,77,70.333,53s33-2.333,43,13.333s49,47.5,79.667,3.417
			c0,0,29.667,37.583,70.667,36.583s43.198-39.699,92-33.333C472,549,472.997,424.667,470.331,421.333
			c0,0,20.419-10.333,25.669-43.333c0,0,55.333-43.667,28.333-107.333c0,0,37-46,1.667-73.333c0,0,15-23.333-26.333-45.333
			c0,0,14.333-22.666-0.333-55S460,66.334,452,64s-30.333-9-57.667-75H-19v466L-6.333,460z"/>
		<path style="fill:#19343D;" d="M12.5,341.5c0,0-20,32,30.75,12.5c0,0-16.75,53,22.75,10c0,0,6.25,28.146,30.5,16.823
			c0,0-9,24.177,19.5,16.677c0,0-16,32.75,19.25,22c0,0,18.75,52.5,24.5,10.5c0,0,20.75,35.75,30.5,31.75s-3.5-33-3.5-33
			s18.5,9.25,22.75,5s-2.25-26.25-2.25-26.25s18.555,19.26,7.25,31c-6.5,6.75-15,1.5-15,1.5s7.5,14.75-2.25,25.25
			S167,452.5,163.5,448c0,0-15.75,21-34.5-20c0,0-29.5,5.945-23-23.277c0,0-23.25,2.777-15.25-15.723c0,0-17.5,6.75-27-10.75
			c0,0-17.75,15.5-25.25,8.5s-6.75-17-3.25-26.5c0,0-22.75,11.75-29,4.25S9.5,343.25,12.5,341.5z"/>
		<path style="fill:#19343D;" d="M123,351.75c0,0-4.75,14.25,0,17.5s32,1.5,41-3.75c0,0,1.75,15.5,11.5,17.25s20.25-4.25,22.25-9.5
			c0,0,1,14.5,8.25,15.25s20.25-2.5,20.25-2.5s-5.5,13.695-1.75,18.723s21.75,4.027,26.75,2.527c0,0-22.092,14.91-33.099,1.219
			c-5.401-6.719,0-15.469,0-15.469s-10.401,2-15.651-1s-8.5-7.5-8.5-7.5s-15.25,7-23.75,3.75s-10-15.25-10-15.25
			s-34.5,8.75-42.75,0.25S117.5,356.5,123,351.75z"/>
		<path style="fill:#19343D;" d="M397.5,324.5c0,0-12.25-15.25,14-11.25c0,0-14.25-22.75,2.5-26.25s13.25,25.25,13.25,25.25
			S430.133,289.991,445,292c9.25,1.25,8.5,20,8.5,20s9.75-25-8.25-26.5c-9.716-0.81-14.75,6.25-14.75,6.25s-4.25-15-18.75-11.25
			s-10.25,21.25-8.25,25c0,0-9.25-1.25-12,4.5S393.25,322.25,397.5,324.5z"/>
	</g>
</g>
</svg>
